<?xml version="1.0" encoding="UTF-8"?>
<svg id="_レイヤー_2" data-name="レイヤー 2" xmlns="http://www.w3.org/2000/svg" viewBox="0 0 70.07 76">
  <defs>
    <style>
      .cls-1 {
        fill: #231815;
      }
    </style>
  </defs>
  <g id="_レイヤー_1-2" data-name="レイヤー 1">
    <g>
      <g>
        <path class="cls-1" d="M12.1,10.5l3.79,7.55h-3.95l-3.24-6.74h-3.13v6.74H1.92V.16h7.47c3.61,0,5.92,1.61,5.92,5.03v.87c0,2.34-1.24,3.87-3.21,4.45Zm-6.53-2.05h3.66c1.26-.03,2.42-.68,2.42-2.05v-1.08c0-1.32-1.03-2.05-2.5-2.05h-3.58v5.18Z"/>
        <path class="cls-1" d="M27.18,0l5.87,18.05h-4l-1.18-4.1h-5.55l-1.21,4.1h-4L23.1,0h4.08Zm.03,11.08l-2.08-6.97-2.13,6.97h4.21Z"/>
        <path class="cls-1" d="M46.79,.16h3.37V18.05h-3.45l-7.82-12.32v12.32h-3.37V.16h3.47l7.79,12.37V.16Z"/>
        <path class="cls-1" d="M68.13,.16l-6.97,8.53,7.74,9.37h-4.66l-5.45-7-1.16,1.32v5.68h-3.66V.16h3.66V8.21L63.63,.16h4.5Z"/>
      </g>
      <g>
        <path class="cls-1" d="M16.52,28.92c12.37,0,16.44,13.02,16.44,23.5s-4.07,23.57-16.44,23.57S0,62.98,0,52.5,4.37,28.92,16.52,28.92Zm-.15,3.13c-4.95,0-6.11,10.48-6.11,20.16s1.53,20.66,6.33,20.66,6.04-10.48,6.04-20.59-1.46-20.23-6.26-20.23Z"/>
        <path class="cls-1" d="M70.07,63.12c-1.16,3.93-2.55,8.95-3.27,12.01h-29.4v-1.96c3.86-3.78,8.08-8.08,11.79-12.22,5.46-6.11,7.93-11.06,7.93-16.74,0-5.17-2.55-8.51-7.49-8.51-4.37,0-7.49,3.06-9.9,6.48l-2.18-1.82,4.66-6.91c2.47-2.91,6.55-4.51,11.13-4.51,7.28,0,13.39,4.95,13.39,13.02,0,5.68-2.18,9.82-9.6,16.66-2.84,2.62-6.91,6.4-9.53,8.66h12.22c4.51,0,5.38-.29,8.08-4.88l2.18,.73Z"/>
      </g>
    </g>
  </g>
</svg>