<?xml version="1.0" encoding="UTF-8"?>
<svg id="_レイヤー_2" data-name="レイヤー 2" xmlns="http://www.w3.org/2000/svg" viewBox="0 0 340 330">
  <defs>
    <style>
      .cls-1 {
        fill: none;
      }

      .cls-2 {
        fill: #231815;
      }
    </style>
  </defs>
  <g id="_レイヤー_1-2" data-name="レイヤー 1">
    <rect class="cls-1" x="10" width="330" height="330"/>
  </g>
  <g id="_レイヤー_7" data-name="レイヤー 7">
    <g>
      <g>
        <path class="cls-2" d="M12.1,31.5l3.79,7.55h-3.95l-3.24-6.74h-3.13v6.74H1.92V21.16h7.47c3.61,0,5.92,1.61,5.92,5.03v.87c0,2.34-1.24,3.87-3.21,4.45Zm-6.53-2.05h3.66c1.26-.03,2.42-.68,2.42-2.05v-1.08c0-1.32-1.03-2.05-2.5-2.05h-3.58v5.18Z"/>
        <path class="cls-2" d="M27.18,21l5.87,18.05h-4l-1.18-4.1h-5.55l-1.21,4.1h-4l6-18.05h4.08Zm.03,11.08l-2.08-6.97-2.13,6.97h4.21Z"/>
        <path class="cls-2" d="M46.79,21.16h3.37v17.89h-3.45l-7.82-12.32v12.32h-3.37V21.16h3.47l7.79,12.37v-12.37Z"/>
        <path class="cls-2" d="M68.13,21.16l-6.97,8.53,7.74,9.37h-4.66l-5.45-7-1.16,1.32v5.68h-3.66V21.16h3.66v8.05l6-8.05h4.5Z"/>
      </g>
      <g>
        <path class="cls-2" d="M16.52,49.92c12.37,0,16.44,13.02,16.44,23.5s-4.07,23.57-16.44,23.57S0,83.98,0,73.5s4.37-23.58,16.52-23.58Zm-.15,3.13c-4.95,0-6.11,10.48-6.11,20.16s1.53,20.66,6.33,20.66,6.04-10.48,6.04-20.59-1.46-20.23-6.26-20.23Z"/>
        <path class="cls-2" d="M40.97,96.13v-2.69c7.49-.36,8-1.16,8-6.4v-26.34c0-3.71-1.31-4-4.29-4.37l-2.18-.36v-2.4c5.6-.65,11.86-2.11,16.15-3.64v37.11c0,5.38,.44,6.04,7.86,6.4v2.69h-25.54Z"/>
      </g>
    </g>
  </g>
</svg>