<?xml version="1.0" encoding="UTF-8"?>
<svg id="_レイヤー_2" data-name="レイヤー 2" xmlns="http://www.w3.org/2000/svg" viewBox="0 0 339.53 330">
  <defs>
    <style>
      .cls-1 {
        fill: none;
      }

      .cls-2 {
        fill: #231815;
      }
    </style>
  </defs>
  <g id="_レイヤー_1-2" data-name="レイヤー 1">
    <rect class="cls-1" x="9.53" width="330" height="330"/>
  </g>
  <g id="_レイヤー_6" data-name="レイヤー 6">
    <g>
      <g>
        <path class="cls-2" d="M12.1,33.14l3.79,7.55h-3.95l-3.24-6.74h-3.13v6.74H1.92V22.8h7.47c3.6,0,5.92,1.61,5.92,5.03v.87c0,2.34-1.24,3.87-3.21,4.45Zm-6.53-2.05h3.66c1.26-.03,2.42-.68,2.42-2.05v-1.08c0-1.32-1.03-2.05-2.5-2.05h-3.58v5.18Z"/>
        <path class="cls-2" d="M27.18,22.64l5.87,18.05h-4l-1.18-4.1h-5.55l-1.21,4.1h-4l6-18.05h4.08Zm.03,11.08l-2.08-6.97-2.13,6.97h4.21Z"/>
        <path class="cls-2" d="M46.79,22.8h3.37v17.89h-3.45l-7.82-12.32v12.32h-3.37V22.8h3.47l7.79,12.37v-12.37Z"/>
        <path class="cls-2" d="M68.13,22.8l-6.97,8.53,7.74,9.37h-4.66l-5.45-7-1.16,1.32v5.68h-3.66V22.8h3.66v8.05l6-8.05h4.5Z"/>
      </g>
      <g>
        <path class="cls-2" d="M16.52,51.57c12.37,0,16.44,13.02,16.44,23.5s-4.07,23.57-16.44,23.57S0,85.62,0,75.14s4.37-23.58,16.52-23.58Zm-.15,3.13c-4.95,0-6.11,10.48-6.11,20.16s1.53,20.66,6.33,20.66,6.04-10.48,6.04-20.59-1.46-20.23-6.26-20.23Z"/>
        <path class="cls-2" d="M51.88,69.83c1.75-.87,3.64-1.38,4.8-1.38,7.93,0,13.61,5.38,13.61,13.68,0,9.17-7.06,16.52-16.74,16.52s-16.52-6.99-16.52-18.63c0-14.84,11.28-23.57,19.72-26.63,2.18-.8,7.71-1.89,10.84-2.26l.44,2.91c-2.11,.51-5.24,1.38-7.79,2.62-3.71,1.82-9.9,5.89-12.08,14.92l3.71-1.75Zm.44,3.86c-1.75,0-3.2,.29-4.66,.8-.29,1.24-.51,3.93-.51,5.89,0,9.6,3.2,15.13,7.93,15.13s5.6-5.68,5.6-10.26c0-6.84-3.42-11.57-8.37-11.57Z"/>
      </g>
    </g>
  </g>
</svg>