<?xml version="1.0" encoding="UTF-8"?>
<svg id="_レイヤー_2" data-name="レイヤー 2" xmlns="http://www.w3.org/2000/svg" viewBox="0 0 70.87 76">
  <defs>
    <style>
      .cls-1 {
        fill: #231815;
      }
    </style>
  </defs>
  <g id="_レイヤー_1-2" data-name="レイヤー 1">
    <g>
      <g>
        <path class="cls-1" d="M12.1,10.5l3.79,7.55h-3.95l-3.24-6.74h-3.13v6.74H1.92V.16h7.47c3.6,0,5.92,1.61,5.92,5.03v.87c0,2.34-1.24,3.87-3.21,4.45Zm-6.53-2.05h3.66c1.26-.03,2.42-.68,2.42-2.05v-1.08c0-1.32-1.03-2.05-2.5-2.05h-3.58v5.18Z"/>
        <path class="cls-1" d="M27.18,0l5.87,18.05h-4l-1.18-4.1h-5.55l-1.21,4.1h-4L23.1,0h4.08Zm.03,11.08l-2.08-6.97-2.13,6.97h4.21Z"/>
        <path class="cls-1" d="M46.79,.16h3.37V18.05h-3.45l-7.82-12.32v12.32h-3.37V.16h3.47l7.79,12.37V.16Z"/>
        <path class="cls-1" d="M68.13,.16l-6.97,8.53,7.74,9.37h-4.66l-5.45-7-1.16,1.32v5.68h-3.66V.16h3.66V8.21L63.63,.16h4.5Z"/>
      </g>
      <g>
        <path class="cls-1" d="M16.52,28.92c12.37,0,16.44,13.02,16.44,23.5s-4.07,23.57-16.44,23.57S0,62.98,0,52.5,4.37,28.92,16.52,28.92Zm-.15,3.13c-4.95,0-6.11,10.48-6.11,20.16s1.53,20.66,6.33,20.66,6.04-10.48,6.04-20.59-1.46-20.23-6.26-20.23Z"/>
        <path class="cls-1" d="M64.1,62.47v4.51c0,4.37,.36,5.02,5.97,5.46v2.69h-20.59v-2.69c5.09-.44,5.31-1.38,5.31-5.75v-4.22h-18.7v-2.98c7.71-10.48,16.44-22.19,22.63-30.12h5.38v28.89h6.77v4.22h-6.77Zm-9.31-23.14c-3.49,4.88-8.51,11.79-13.39,18.92h13.39v-18.92Z"/>
      </g>
    </g>
  </g>
</svg>