<?xml version="1.0" encoding="UTF-8"?>
<svg id="_レイヤー_2" data-name="レイヤー 2" xmlns="http://www.w3.org/2000/svg" viewBox="0 0 68.89 76">
  <defs>
    <style>
      .cls-1 {
        fill: #231815;
      }
    </style>
  </defs>
  <g id="_レイヤー_1-2" data-name="レイヤー 1">
    <g>
      <g>
        <path class="cls-1" d="M12.1,10.5l3.79,7.55h-3.95l-3.24-6.74h-3.13v6.74H1.92V.16h7.47c3.61,0,5.92,1.61,5.92,5.03v.87c0,2.34-1.24,3.87-3.21,4.45Zm-6.53-2.05h3.66c1.26-.03,2.42-.68,2.42-2.05v-1.08c0-1.32-1.03-2.05-2.5-2.05h-3.58v5.18Z"/>
        <path class="cls-1" d="M27.18,0l5.87,18.05h-4l-1.18-4.1h-5.55l-1.21,4.1h-4L23.1,0h4.08Zm.03,11.08l-2.08-6.97-2.13,6.97h4.21Z"/>
        <path class="cls-1" d="M46.79,.16h3.37V18.05h-3.45l-7.82-12.32v12.32h-3.37V.16h3.47l7.79,12.37V.16Z"/>
        <path class="cls-1" d="M68.13,.16l-6.97,8.53,7.74,9.37h-4.66l-5.45-7-1.16,1.32v5.68h-3.66V.16h3.66V8.21L63.63,.16h4.5Z"/>
      </g>
      <g>
        <path class="cls-1" d="M16.52,28.92c12.37,0,16.44,13.02,16.44,23.5s-4.07,23.57-16.44,23.57S0,62.98,0,52.5,4.37,28.92,16.52,28.92Zm-.15,3.13c-4.95,0-6.11,10.48-6.11,20.16s1.53,20.66,6.33,20.66,6.04-10.48,6.04-20.59-1.46-20.23-6.26-20.23Z"/>
        <path class="cls-1" d="M38.78,38.31l3.64-4.8c2.04-2.33,5.53-4.58,10.55-4.58,7.64,0,11.93,4.73,11.93,10.11,0,1.96-1.02,4-2.47,5.24-1.31,1.16-3.13,2.47-5.6,3.93,7.49,1.53,11.57,5.6,11.57,11.06-.07,11.57-16.01,16.74-20.66,16.74-3.64,0-6.62-1.16-8.08-2.4-1.31-1.02-1.75-1.96-1.75-2.98,0-1.38,1.02-2.91,1.96-3.57,.95-.73,1.96-.58,2.98,.15,1.6,1.46,5.09,4.73,9.46,4.73,3.71,0,6.55-2.69,6.55-9.46s-5.09-9.39-9.1-9.39c-1.38,0-2.98,.15-4,.44l-.51-2.55c6.69-2.26,10.48-4.66,10.48-9.6,0-4.58-2.98-6.69-6.18-6.69-3.71,0-6.18,2.11-8.8,5.53l-1.96-1.89Z"/>
      </g>
    </g>
  </g>
</svg>